<svg xmlns="http://www.w3.org/2000/svg" viewBox="0 0 1200 180" fill="none" preserveAspectRatio="xMidYMax meet" role="img" aria-label="New York City skyline">
  <g fill="#0A1A2E">
    <rect x="0" y="120" width="60" height="60"/>
    <rect x="70" y="95" width="45" height="85"/>
    <rect x="125" y="130" width="55" height="50"/>
    <rect x="190" y="70" width="40" height="110"/>
    <rect x="200" y="55" width="20" height="15"/>
    <rect x="240" y="105" width="50" height="75"/>
    <rect x="300" y="85" width="35" height="95"/>
    <rect x="345" y="125" width="60" height="55"/>
    <!-- Empire State-style tower -->
    <rect x="420" y="60" width="56" height="120"/>
    <rect x="432" y="38" width="32" height="22"/>
    <rect x="444" y="20" width="8" height="18"/>
    <rect x="490" y="110" width="48" height="70"/>
    <rect x="548" y="80" width="38" height="100"/>
    <rect x="596" y="120" width="58" height="60"/>
    <!-- slim supertall -->
    <rect x="668" y="30" width="22" height="150"/>
    <rect x="700" y="100" width="46" height="80"/>
    <rect x="756" y="70" width="36" height="110"/>
    <rect x="800" y="125" width="54" height="55"/>
    <!-- One WTC-style tower -->
    <rect x="868" y="48" width="44" height="132"/>
    <rect x="886" y="22" width="6" height="26"/>
    <rect x="922" y="95" width="40" height="85"/>
    <rect x="972" y="115" width="52" height="65"/>
    <rect x="1034" y="85" width="36" height="95"/>
    <rect x="1080" y="125" width="50" height="55"/>
    <rect x="1140" y="100" width="60" height="80"/>
  </g>
  <!-- lit windows -->
  <g fill="#FFFFFF" opacity="0.35">
    <rect x="430" y="75" width="6" height="6"/>
    <rect x="448" y="95" width="6" height="6"/>
    <rect x="430" y="120" width="6" height="6"/>
    <rect x="448" y="145" width="6" height="6"/>
    <rect x="674" y="55" width="5" height="5"/>
    <rect x="680" y="90" width="5" height="5"/>
    <rect x="674" y="125" width="5" height="5"/>
    <rect x="878" y="70" width="6" height="6"/>
    <rect x="896" y="105" width="6" height="6"/>
    <rect x="878" y="140" width="6" height="6"/>
    <rect x="200" y="90" width="5" height="5"/>
    <rect x="215" y="125" width="5" height="5"/>
    <rect x="310" y="105" width="5" height="5"/>
    <rect x="560" y="100" width="5" height="5"/>
    <rect x="766" y="90" width="5" height="5"/>
    <rect x="940" y="115" width="5" height="5"/>
  </g>
</svg>
